<svg xmlns="http://www.w3.org/2000/svg" viewBox="0 0 997.38 174.55"><defs><style>.cls-1{fill:#0d6efd;}</style></defs><g id="Layer_2" data-name="Layer 2"><g id="icon-0"><g id="tight-bounds"><g id="textblocktransform"><path id="text-0" class="cls-1" d="M525.19,86.19a13.67,13.67,0,0,1,10.34,14h0a13.91,13.91,0,0,1-2.46,8.19,15.93,15.93,0,0,1-7,5.46,27.16,27.16,0,0,1-10.71,1.94H487V58.8h27.54q9,0,14.27,4a12.8,12.8,0,0,1,5.28,10.78h0a13.11,13.11,0,0,1-2.34,7.7,13.32,13.32,0,0,1-6.54,4.9ZM501.44,70V81.18H512q4.2,0,6.14-1.29a4.61,4.61,0,0,0,1.94-4.12h0a5,5,0,0,0-1.94-4.37Q516.23,70,512,70H501.44Zm12,34.49c3,0,5.08-.47,6.35-1.42s1.89-2.48,1.89-4.64h0q0-3.22-1.89-4.65c-1.27-.93-3.38-1.4-6.35-1.4h-12v12.11Zm43.06,11.23H542.15V58.8h14.38ZM583,75q9.38,0,13.85,4.31t4.49,13.46h0v22.94H587.87v-5.57a9,9,0,0,1-3.8,4.55,11.81,11.81,0,0,1-6.39,1.67h0a16.29,16.29,0,0,1-7.42-1.67,12.83,12.83,0,0,1-5.22-4.6,12,12,0,0,1-1.9-6.66h0a10,10,0,0,1,2.23-6.83q2.21-2.53,7.06-3.67a60.32,60.32,0,0,1,13.1-1.13h2.18v-1c0-2-.46-3.38-1.37-4.17s-2.55-1.16-4.85-1.16h0a22.49,22.49,0,0,0-6.35,1.08,38.16,38.16,0,0,0-6.75,2.8h0L564.75,80a34.65,34.65,0,0,1,8.69-3.53A37.4,37.4,0,0,1,583,75Zm-1.94,31.75a6.12,6.12,0,0,0,4.77-2.07,7.58,7.58,0,0,0,1.86-5.29h0v-1h-1.29q-5.17,0-7.35.93a3.19,3.19,0,0,0-2.2,3.11h0a4.19,4.19,0,0,0,1.18,3.07,4,4,0,0,0,3,1.22Zm67.52-20.6a13.67,13.67,0,0,1,10.34,14h0a13.91,13.91,0,0,1-2.46,8.19,15.93,15.93,0,0,1-7,5.46,27.09,27.09,0,0,1-10.71,1.94H610.39V58.8h27.55q9,0,14.26,4a12.8,12.8,0,0,1,5.28,10.78h0a13.11,13.11,0,0,1-2.34,7.7,13.32,13.32,0,0,1-6.54,4.9ZM624.85,70V81.18h10.58q4.2,0,6.14-1.29a4.61,4.61,0,0,0,1.94-4.12h0a5,5,0,0,0-1.94-4.37Q639.64,70,635.43,70H624.85Zm12,34.49c3,0,5.07-.47,6.35-1.42s1.89-2.48,1.89-4.64h0q0-3.22-1.89-4.65c-1.28-.93-3.39-1.4-6.35-1.4h-12v12.11Zm43.05,11.23H665.56V58.8h14.38ZM706.44,75q9.36,0,13.84,4.31t4.49,13.46h0v22.94H711.28v-5.57a9.05,9.05,0,0,1-3.79,4.55,11.84,11.84,0,0,1-6.39,1.67h0a16.33,16.33,0,0,1-7.43-1.67,12.89,12.89,0,0,1-5.22-4.6,12,12,0,0,1-1.89-6.66h0a10,10,0,0,1,2.22-6.83Q691,94.11,695.85,93a60.4,60.4,0,0,1,13.09-1.13h2.18v-1c0-2-.46-3.38-1.37-4.17s-2.53-1.16-4.85-1.16h0a22.49,22.49,0,0,0-6.35,1.08,38.06,38.06,0,0,0-6.74,2.8h0L688.18,80a34.41,34.41,0,0,1,8.68-3.53,37.28,37.28,0,0,1,9.58-1.4Zm-1.94,31.75a6.1,6.1,0,0,0,4.76-2.07,7.58,7.58,0,0,0,1.86-5.29h0v-1h-1.29q-5.18,0-7.35.93a3.19,3.19,0,0,0-2.18,3.11h0a4.22,4.22,0,0,0,1.16,3.07,4.06,4.06,0,0,0,3,1.22Zm57,9.69A31.46,31.46,0,0,1,746,112.84a24.78,24.78,0,0,1-10.1-10.26,32.26,32.26,0,0,1-3.5-15.34h0a32.13,32.13,0,0,1,3.5-15.32A24.9,24.9,0,0,1,746,61.71a31.57,31.57,0,0,1,15.48-3.63h0a34.56,34.56,0,0,1,10.77,1.69,24.7,24.7,0,0,1,8.53,4.53h0l-4.6,10.5a24.78,24.78,0,0,0-14.38-4.93h0q-6.94,0-10.63,4.36t-3.67,13h0q0,8.64,3.67,13t10.63,4.41h0a24.83,24.83,0,0,0,14.38-4.92h0l4.6,10.5a24.85,24.85,0,0,1-8.53,4.52,34.57,34.57,0,0,1-10.77,1.7ZM814.34,75q7.11,0,10.58,4.23t3.47,12.89h0v23.59H814V92.81q0-3.56-1.25-5.17A4.46,4.46,0,0,0,809,86h0a6.6,6.6,0,0,0-5.12,2A7.85,7.85,0,0,0,802,93.62h0v22.13H787.6V58.8H802v22a14.16,14.16,0,0,1,5.33-4.28,16.56,16.56,0,0,1,7-1.45Zm40.31,0q9.36,0,13.86,4.31T873,92.81h0v22.94H859.49v-5.57a9.05,9.05,0,0,1-3.79,4.55,11.82,11.82,0,0,1-6.38,1.67h0a16.35,16.35,0,0,1-7.44-1.67,12.77,12.77,0,0,1-5.2-4.6,12,12,0,0,1-1.9-6.66h0A10,10,0,0,1,837,96.64q2.21-2.53,7.06-3.67a60.24,60.24,0,0,1,13.08-1.13h2.18v-1c0-2-.46-3.38-1.37-4.17s-2.53-1.16-4.85-1.16h0a22.31,22.31,0,0,0-6.33,1.08,37.54,37.54,0,0,0-6.75,2.8h0L836.39,80a34.34,34.34,0,0,1,8.69-3.53,37.21,37.21,0,0,1,9.57-1.4Zm-1.94,31.75a6.09,6.09,0,0,0,4.76-2.07,7.58,7.58,0,0,0,1.86-5.29h0v-1H858q-5.17,0-7.35.93a3.2,3.2,0,0,0-2.18,3.11h0a4.19,4.19,0,0,0,1.18,3.07,4,4,0,0,0,3,1.22ZM931.79,75q6.94,0,10.29,4.2t3.36,12.92h0v23.59H931.06V92.57a9.11,9.11,0,0,0-1-5A3.9,3.9,0,0,0,926.54,86h0a5.37,5.37,0,0,0-4.57,2.1,9.8,9.8,0,0,0-1.57,6h0v21.65H906V92.57a9.11,9.11,0,0,0-1-5A3.91,3.91,0,0,0,901.5,86h0a5.24,5.24,0,0,0-4.52,2.1,9.94,9.94,0,0,0-1.54,6h0v21.65H881.06V76h14v5q4-6,12.11-6h0q8.57,0,11.55,7h0a14.83,14.83,0,0,1,5.53-5.17A15.62,15.62,0,0,1,931.79,75Zm48.06,0a16.23,16.23,0,0,1,15.3,9.64,24.69,24.69,0,0,1,2.23,10.8h0a25.39,25.39,0,0,1-2.23,10.9,17.16,17.16,0,0,1-6.22,7.38,16.07,16.07,0,0,1-9.08,2.64h0a16.06,16.06,0,0,1-7.23-1.62,11.57,11.57,0,0,1-5-4.44h0v5.41H953.52V58.8H967.9V80.69a12.45,12.45,0,0,1,5-4.12,16,16,0,0,1,7-1.53Zm-4.44,30.61a6.8,6.8,0,0,0,5.74-2.63c1.34-1.74,2-4.26,2-7.54h0c0-3.13-.67-5.52-2-7.19a6.82,6.82,0,0,0-5.69-2.51h0a7,7,0,0,0-5.81,2.54q-2,2.55-2,7.32h0q0,4.85,2,7.43a6.84,6.84,0,0,0,5.73,2.58Z"/></g><path class="cls-1" d="M72.48,101.91a36.32,36.32,0,1,0,36.32,36.33A36.33,36.33,0,0,0,72.48,101.91Zm0,51.56a15.33,15.33,0,1,1,15.33-15.32A15.32,15.32,0,0,1,72.48,153.47Z"/><path class="cls-1" d="M391.43,101.9a36.32,36.32,0,1,0,36.32,36.32A36.33,36.33,0,0,0,391.43,101.9Zm0,51.57a15.33,15.33,0,1,1,15.34-15.32A15.33,15.33,0,0,1,391.43,153.47Z"/><path class="cls-1" d="M371,50.3S281.65,8.65,253.14,2.62,126.53,2.07,117.22,8.1L62.41,34.94,8.7,61.25,0,112S-.23,142,1.86,149h26.3l.34-10.71a44,44,0,1,1,88,0l.75,10.71H347.41l0-13.48c0-24.29,18.35-42.22,42.64-42.22s45.33,17.94,45.33,42.22l.9,12.46s27.83,1.57,36.6-1.72c0,0,3.28-46.59-13.7-63.58C444.14,68.36,413.72,59.47,371,50.3ZM122.14,56.88s11.25-23.85,23.53-33c9.1-7.75,59.24-7.54,59.24-7.54l1.85,46.25Zm217.33,11L221.91,63.18l-2.75-46.87C262.73,14.68,312.34,38,340.84,54.68S339.47,67.84,339.47,67.84Z"/></g></g></g></svg>